<?xml version="1.0" encoding="utf-8"?>
<!-- Generator: Adobe Illustrator 23.0.6, SVG Export Plug-In . SVG Version: 6.00 Build 0)  -->
<svg version="1.1" id="Layer_1" xmlns="http://www.w3.org/2000/svg" xmlns:xlink="http://www.w3.org/1999/xlink" x="0px" y="0px"
	 viewBox="0 0 166 177" style="enable-background:new 0 0 166 177;" xml:space="preserve">
<style type="text/css">
	.st0{fill:#3FACE1;}
	.st1{fill:#37A5DD;}
	.st2{fill:#485AA4;}
	.st3{fill:#E53637;}
	.st4{clip-path:url(#SVGID_2_);fill:#1864AD;}
	.st5{clip-path:url(#SVGID_4_);fill:#4754A0;}
	.st6{clip-path:url(#SVGID_4_);fill:#353C6D;}
</style>
<path class="st0" d="M55,108C55,108,55.1,108,55,108L55,108L55,108z"/>
<path class="st0" d="M55.1,108L55.1,108L55.1,108z"/>
<g>
	<path class="st1" d="M123.7,89.6L123.7,89.6L123.7,89.6c-3-5.7-6.9-11.5-11.7-17l0,0l0,0c-0.6-0.7-1.3-1.5-1.9-2.2
		c-1.1-1.2-2.1-2.3-3.3-3.5l0,0c-3-3-6.2-5.7-9.4-8.2c-0.5,0.2-1,0.5-1.5,0.7c-0.2,0.1-0.4,0.2-0.6,0.3h0c-3.3,1.7-6.9,4.3-10.6,7.5
		c0,0-0.1,0.1-0.1,0.1h0c-0.3,0.3-0.7,0.6-1,0.9c4,3.6,8.1,8,11.9,13l0,0c2.3,3,4.3,6,6.2,9c0.2,0.3,0.3,0.5,0.5,0.8
		c3.5,5.8,6,11.4,7.4,16.4l0,0l0,0c0.3,0.9,0.5,1.9,0.7,2.8c0.4,2,0.6,3.8,0.6,5.4c0,1.7-0.2,3.2-0.7,4.3c-0.4,1.2-1.1,2-1.9,2.7
		c-1,0.8-2.2,1.1-3.9,1.2c-1.9,0-4.3-0.6-7-1.8c-0.7,0.5-1.3,1-2,1.5h0h0c-3.7,2.7-7.4,5-11.1,7c-0.2,0.1-0.5,0.2-0.7,0.3
		c8.3,4.2,16.5,6.5,23.7,6.5c3.4,0,6.5-0.5,9.4-1.5c2.9-1,5.5-2.6,7.6-4.8l-0.1,0.1l0.1-0.1c2.1-2.1,3.7-4.7,4.7-7.6
		c1-2.9,1.5-6,1.5-9.3c0-7.3-2.3-15.5-6.5-23.8C123.9,90,123.8,89.8,123.7,89.6"/>
	<path class="st1" d="M71.7,99.4L71.7,99.4c-2.5-3.3-4.8-6.6-6.7-9.9l0,0c-3.5-5.8-6-11.5-7.3-16.4v0l0,0c-0.9-3-1.3-5.8-1.3-8.1
		c0-1.7,0.2-3.2,0.7-4.3c0.4-1.2,1.1-2,1.9-2.6c1-0.8,2.2-1.2,3.9-1.2c1.9,0,4.3,0.6,6.9,1.7c0.7-0.5,1.3-1,2-1.5v0
		c3.7-2.7,7.4-5.1,11.2-7c0.2-0.1,0.5-0.2,0.7-0.3c-8.3-4.2-16.5-6.5-23.8-6.5c-3.4,0-6.5,0.5-9.4,1.5c-2.9,1-5.4,2.6-7.6,4.8
		c-2.1,2.1-3.7,4.7-4.7,7.6c-1,2.8-1.5,6-1.5,9.3c0,7.3,2.3,15.4,6.5,23.7c0.1,0.2,0.2,0.5,0.3,0.7v0c3,5.8,6.9,11.5,11.7,17
		c0.6,0.7,1.3,1.5,1.9,2.2c1.1,1.2,2.2,2.4,3.3,3.5c3,3,6.2,5.8,9.4,8.2c0.7-0.3,1.4-0.7,2.2-1l0,0c3.3-1.8,6.9-4.3,10.6-7.6
		c0.3-0.3,0.7-0.6,1-0.9C79.5,108.7,75.5,104.4,71.7,99.4"/>
	<path class="st2" d="M109.4,107.4L109.4,107.4L109.4,107.4c-1.4-4.9-3.9-10.5-7.4-16.3c-0.2-0.3-0.3-0.5-0.5-0.8
		c-1.8,3-3.9,6.1-6.2,9.1l0,0l0,0c-3.8,5-7.8,9.3-11.8,12.9c-0.3,0.3-0.7,0.6-1,0.9c-3.7,3.3-7.3,5.8-10.6,7.6l0,0
		c-0.7,0.4-1.5,0.7-2.2,1c-2.7,1.2-5.1,1.8-7,1.8c-1.6,0-2.9-0.4-3.9-1.2c-0.8-0.6-1.4-1.5-1.9-2.6c-0.4-1.2-0.7-2.6-0.7-4.3
		c0-1.6,0.2-3.5,0.6-5.5c-0.4-0.5-0.8-0.9-1.2-1.4c-0.2-0.3-0.5-0.5-0.7-0.8c-4.5-5.2-8.2-10.6-11.1-16c-0.2-0.3-0.4-0.7-0.5-1v0
		c-0.1-0.2-0.2-0.5-0.3-0.7c-4.2,8.3-6.5,16.5-6.5,23.8c0,3.3,0.5,6.5,1.5,9.4c1,2.9,2.6,5.4,4.7,7.6c2.1,2.2,4.7,3.7,7.6,4.8
		c2.9,1,6.1,1.5,9.4,1.5c7.3,0,15.4-2.3,23.7-6.5c0.2-0.1,0.5-0.2,0.7-0.4c3.7-1.9,7.5-4.3,11.1-7h0h0c0.7-0.5,1.3-1,2-1.5
		c3.2-2.5,6.4-5.2,9.4-8.2l0,0l0,0c1.1-1.2,2.2-2.3,3.3-3.5c-0.1-0.6-0.3-1.2-0.4-1.8C109.6,108,109.5,107.7,109.4,107.4"/>
	<path class="st3" d="M129,57.2c-1-2.9-2.6-5.4-4.7-7.6c-2.1-2.2-4.7-3.7-7.6-4.8c-2.9-1.1-6-1.5-9.4-1.5c-7.5,0-15.9,2.4-24.4,6.8
		c-3.8,2-7.5,4.3-11.2,7v0c-3.9,2.8-7.7,6.1-11.4,9.7c-1.1,1.1-2.2,2.3-3.3,3.5c0.2,0.9,0.4,1.8,0.7,2.8v0v0
		C59,78,61.6,83.7,65,89.5l0,0c0.2,0.3,0.3,0.5,0.5,0.8c1.8-3,3.9-6,6.2-9c3.8-5,7.9-9.4,11.9-13c0.3-0.3,0.7-0.6,1-0.9h0
		c3.7-3.3,7.3-5.9,10.7-7.6h0c0.7-0.4,1.5-0.7,2.2-1.1c2.6-1.2,5-1.8,6.9-1.7c1.6,0,2.9,0.4,3.9,1.2l0,0l0,0
		c0.8,0.6,1.4,1.5,1.9,2.7c0.4,1.1,0.7,2.6,0.7,4.3c0,1.6-0.2,3.4-0.6,5.3c0.6,0.7,1.3,1.5,1.9,2.2l0,0l0,0
		c4.8,5.5,8.7,11.3,11.7,17l0,0c0,0,0,0,0,0c0.1,0.2,0.2,0.5,0.3,0.7c4.2-8.3,6.5-16.5,6.5-23.7C130.5,63.2,130,60,129,57.2"/>
</g>
<g>
	<defs>
		<path id="SVGID_1_" d="M124.3,130.9L124.3,130.9L124.3,130.9 M112,72.5C112,72.5,112,72.5,112,72.5L112,72.5L112,72.5z M95.9,59.4
			c-0.2,0.1-0.4,0.2-0.6,0.3h0c-3.3,1.7-6.9,4.3-10.6,7.5c0,0-0.1,0.1-0.1,0.1h0c-0.3,0.3-0.7,0.6-1,0.9c4,3.6,8.1,8,11.9,13l0,0
			c2.3,3,4.3,6,6.2,9c0.2,0.3,0.3,0.5,0.5,0.8c3.5,5.8,6,11.4,7.4,16.4l0,0l0,0c0.3,0.9,0.5,1.9,0.7,2.8c0.4,2,0.6,3.8,0.6,5.4
			c0,1.7-0.2,3.2-0.7,4.3c-0.4,1.2-1.1,2-1.9,2.7c-1,0.8-2.2,1.2-3.9,1.2c-1.9,0-4.3-0.6-7-1.8c-0.7,0.5-1.3,1-2,1.5l0,0l0,0
			c-3.7,2.7-7.4,5-11.1,7c-0.2,0.1-0.5,0.2-0.7,0.3c6.2,3.1,12.3,5.2,18,6.1h11.1c1.4-0.3,2.8-0.6,4.1-1.1c2.9-1,5.5-2.6,7.6-4.8
			c2.1-2.1,3.7-4.7,4.7-7.6c1-2.9,1.5-6,1.5-9.4c0-7.3-2.3-15.5-6.5-23.8c-0.1-0.2-0.2-0.5-0.3-0.7v0c-3-5.7-6.9-11.5-11.7-17l0,0
			c-0.6-0.7-1.3-1.5-1.9-2.2c-1.1-1.2-2.1-2.3-3.3-3.5l0,0c-3-3-6.2-5.7-9.4-8.2C96.9,58.9,96.4,59.1,95.9,59.4"/>
	</defs>
	<clipPath id="SVGID_2_">
		<use xlink:href="#SVGID_1_"  style="overflow:visible;"/>
	</clipPath>
	<path class="st4" d="M70.4,94.1c1.9-3.2,4-6.3,6.4-9.4c3.9-5.1,8-9.5,12.3-13.3c3.5-3.1,6.8-5.4,9.9-7.1c3.8-2,6.1-2.3,7.1-2.3
		c0.5,0,1.1,0.1,1.5,0.3L128.9,48c-4.8-4.9-11.7-7.5-19.7-7.5c-8,0-17,2.5-26.1,7.2c-3.8,2-7.7,4.4-11.6,7.3
		c-4.2,3.1-8.2,6.5-11.8,10c-1.7,1.7-3.4,3.6-5.4,5.9l-1.9,2.2l0.8,2.8c1.5,5.5,4.3,11.7,8,18l2,3.4l-21-8.7
		c-9.8,18.8-9.7,35.9,0.1,45.8c4.8,4.9,11.7,7.5,19.7,7.5h0c8,0,17-2.5,26.2-7.2c3.8-2,7.7-4.4,11.6-7.3c4.1-3,5-3.6,8.8-7.4
		l-41-20.9L70.4,94.1z"/>
</g>
<g>
	<path class="st2" d="M129,57.2c-1-2.9-2.6-5.4-4.7-7.6c-2.1-2.2-4.7-3.7-7.6-4.8c-2.9-1.1-6-1.5-9.4-1.5c-7.5,0-15.9,2.4-24.4,6.8
		c-3.8,2-7.5,4.3-11.2,7v0c-3.9,2.8-7.7,6.1-11.4,9.7c-1.1,1.1-2.2,2.3-3.3,3.5c0.2,0.9,0.4,1.8,0.7,2.8v0v0
		C59,78,61.6,83.7,65,89.5l0,0c0.2,0.3,0.3,0.5,0.5,0.8c1.8-3,3.9-6,6.2-9c3.8-5,7.9-9.4,11.9-13c0.3-0.3,0.7-0.6,1-0.9h0
		c3.7-3.3,7.3-5.9,10.7-7.6h0c0.7-0.4,1.5-0.7,2.2-1.1c2.6-1.2,5-1.8,6.9-1.7c1.6,0,2.9,0.4,3.9,1.2l0,0l0,0
		c0.8,0.6,1.4,1.5,1.9,2.7c0.4,1.1,0.7,2.6,0.7,4.3c0,1.6-0.2,3.4-0.6,5.3c0.6,0.7,1.3,1.5,1.9,2.2l0,0l0,0
		c4.8,5.5,8.7,11.3,11.7,17l0,0c0,0,0,0,0,0c0.1,0.2,0.2,0.5,0.3,0.7c4.2-8.3,6.5-16.5,6.5-23.7C130.5,63.2,130,60,129,57.2"/>
</g>
<g>
	<defs>
		<path id="SVGID_3_" d="M38,103.4v19.7c0,0.1,0,0.1,0.1,0.2c1,2.9,2.6,5.4,4.7,7.6c2.1,2.2,4.7,3.7,7.6,4.8
			c1.3,0.5,2.7,0.8,4.1,1.1h11.1c5.7-0.9,11.8-2.9,18-6.1c0.2-0.1,0.5-0.2,0.7-0.3c3.7-1.9,7.4-4.3,11.1-7l0,0l0,0
			c0.7-0.5,1.3-1,2-1.5c3.2-2.5,6.4-5.2,9.4-8.2l0,0l0,0c1.1-1.2,2.2-2.3,3.3-3.5c-0.1-0.6-0.3-1.2-0.4-1.8
			c-0.1-0.3-0.2-0.6-0.2-0.9c-1.4-4.9-3.9-10.5-7.4-16.4c-0.2-0.3-0.3-0.5-0.5-0.8c-1.8,3-3.9,6.1-6.2,9.1l0,0l0,0
			c-3.8,5-7.8,9.3-11.8,12.9c-0.3,0.3-0.7,0.6-1,0.9c-3.7,3.2-7.3,5.8-10.6,7.6l0,0c-0.7,0.4-1.5,0.7-2.2,1.1
			c-2.7,1.2-5.1,1.8-7,1.8c-1.6,0-2.9-0.4-3.9-1.2c-0.8-0.6-1.4-1.5-1.9-2.6c-0.4-1.2-0.7-2.6-0.7-4.3c0-1.6,0.2-3.5,0.6-5.5
			c-0.4-0.5-0.8-0.9-1.2-1.4c-0.2-0.3-0.5-0.5-0.7-0.8c-4.5-5.2-8.2-10.6-11.1-16c-0.2-0.3-0.4-0.7-0.5-1v0
			c-0.1-0.2-0.2-0.5-0.3-0.7C40.8,94.7,39.1,99.1,38,103.4"/>
	</defs>
	<clipPath id="SVGID_4_">
		<use xlink:href="#SVGID_3_"  style="overflow:visible;"/>
	</clipPath>
	<path class="st5" d="M104.2,120.7c0.5,0,1.1-0.1,1.5-0.3c1-0.7,1.7-4.3-0.2-10.9c-1.3-4.7-3.7-10-6.9-15.3c-2-3.3-4.1-6.5-6.4-9.4
		c-3.7-4.9-8-9.5-12.3-13.3l-4.6-4.1l4.6-4.1c4.1-3.6,8.2-6.5,12-8.5l3-1.6l2.7,2c4.2,3.1,8.1,6.4,11.8,10c2.1,2.1,4,4.2,5.4,5.9
		c4.9,5.7,9,11.7,12.1,17.7c9.6,18.5,9.6,36-0.1,45.8c-4.8,4.9-11.7,7.4-19.7,7.4h0c-8,0-17-2.5-26.1-7.3"/>
	<path class="st6" d="M58.6,118.4c-1.9-1.9-3.6-3.8-5.4-6c-4.9-5.6-8.9-11.6-12.1-17.7C31.3,76,31.3,58.9,41.1,49
		c4.8-4.9,11.7-7.4,19.7-7.4c8,0,17,2.5,26.2,7.3l9.3,4.8L87,58.5c-3.3,1.7-6.7,3.9-10.2,6.4l-2.7,2l-3-1.6c-3.8-2-6.1-2.3-7.2-2.3
		c-0.5,0-1.1,0.1-1.5,0.3c-1,0.7-1.7,4.2,0.1,10.8c1.3,4.6,3.7,9.9,6.9,15.4c2,3.3,4.2,6.5,6.4,9.5"/>
</g>
</svg>
